<svg width="19" height="19" viewBox="0 0 19 19" fill="none" xmlns="http://www.w3.org/2000/svg">
<path d="M2.13379 5.68842L9.25879 8.85512L9.74107 7.76994L2.61607 4.60327L2.13379 5.68842ZM10.0937 17.0208V8.31251H8.90618V17.0208H10.0937ZM9.74107 8.85512L16.8661 5.68842L16.3838 4.60327L9.25879 7.76994L9.74107 8.85512Z" fill="#7E7F83"/>
<path d="M2.375 13.5455V5.45454C2.375 5.26683 2.48555 5.09672 2.65709 5.02049L9.30707 2.06493C9.42994 2.01034 9.57006 2.01034 9.69293 2.06493L16.3429 5.02049C16.5145 5.09672 16.625 5.26683 16.625 5.45454V13.5455C16.625 13.7332 16.5145 13.9034 16.3429 13.9796L9.69293 16.9351C9.57006 16.9897 9.42994 16.9897 9.30707 16.9351L2.65709 13.9796C2.48555 13.9034 2.375 13.7332 2.375 13.5455Z" stroke="#7E7F83" stroke-width="0.833333" stroke-linecap="round" stroke-linejoin="round"/>
<path d="M5.9375 3.5625L12.7804 6.6038C12.952 6.68004 13.0625 6.85014 13.0625 7.03785V9.89583" stroke="#7E7F83" stroke-width="0.833333" stroke-linecap="round" stroke-linejoin="round"/>
</svg>
