<svg width="19" height="19" viewBox="0 0 19 19" fill="none" xmlns="http://www.w3.org/2000/svg">
<path d="M16.625 5.82117V13.1789C16.625 13.3514 16.5315 13.5103 16.3807 13.5941L9.73071 17.2885C9.58726 17.3682 9.41277 17.3682 9.26932 17.2885L2.61933 13.5941C2.46854 13.5103 2.37502 13.3514 2.37502 13.1789L2.375 5.82117C2.375 5.64867 2.46853 5.48973 2.61932 5.40595L9.26932 1.71151C9.41277 1.63181 9.58726 1.63181 9.73071 1.71151L16.3807 5.40595C16.5314 5.48973 16.625 5.64867 16.625 5.82117Z" stroke="#ffff" stroke-width="0.833333" stroke-linecap="round" stroke-linejoin="round"/>
<path d="M2.79346 5.77411L9.26942 9.37186C9.41287 9.45158 9.58735 9.45158 9.7308 9.37186L16.2293 5.7616" stroke="#ffff" stroke-width="0.833333" stroke-linecap="round" stroke-linejoin="round"/>
<path d="M9.5 16.625V9.5" stroke="#ffff" stroke-width="0.833333" stroke-linecap="round" stroke-linejoin="round"/>
</svg>
