<svg width="20" height="20" viewBox="0 0 20 20" fill="none" xmlns="http://www.w3.org/2000/svg">
<path d="M13.3332 10.8334C11.032 10.8334 9.1665 9.9006 9.1665 8.75002C9.1665 7.59943 11.032 6.66669 13.3332 6.66669C15.6343 6.66669 17.4998 7.59943 17.4998 8.75002C17.4998 9.9006 15.6343 10.8334 13.3332 10.8334Z" stroke="#FBFCFE" stroke-width="0.833333" stroke-linecap="round" stroke-linejoin="round"/>
<path d="M9.1665 12.0833C9.1665 13.2339 11.032 14.1666 13.3332 14.1666C15.6343 14.1666 17.4998 13.2339 17.4998 12.0833" stroke="#FBFCFE" stroke-width="0.833333" stroke-linecap="round" stroke-linejoin="round"/>
<path d="M2.5 7.91669C2.5 9.06727 4.36548 10 6.66667 10C7.60486 10 8.47058 9.84502 9.16708 9.58335" stroke="#FBFCFE" stroke-width="0.833333" stroke-linecap="round" stroke-linejoin="round"/>
<path d="M2.5 10.8333C2.5 11.9839 4.36548 12.9166 6.66667 12.9166C7.60467 12.9166 8.47025 12.7616 9.16667 12.5001" stroke="#FBFCFE" stroke-width="0.833333" stroke-linecap="round" stroke-linejoin="round"/>
<path d="M2.5 4.58331V13.75C2.5 14.9006 4.36548 15.8333 6.66667 15.8333C7.60469 15.8333 8.47025 15.6782 9.16667 15.4166" stroke="#FBFCFE" stroke-width="0.833333" stroke-linecap="round" stroke-linejoin="round"/>
<path d="M10.8335 7.08331V4.58331" stroke="#FBFCFE" stroke-width="0.833333" stroke-linecap="round" stroke-linejoin="round"/>
<path d="M9.1665 8.75V15.4167C9.1665 16.5672 11.032 17.5 13.3332 17.5C15.6343 17.5 17.4998 16.5672 17.4998 15.4167V8.75" stroke="#FBFCFE" stroke-width="0.833333" stroke-linecap="round" stroke-linejoin="round"/>
<path d="M6.66667 6.66667C4.36548 6.66667 2.5 5.73392 2.5 4.58333C2.5 3.43274 4.36548 2.5 6.66667 2.5C8.96783 2.5 10.8333 3.43274 10.8333 4.58333C10.8333 5.73392 8.96783 6.66667 6.66667 6.66667Z" stroke="#FBFCFE" stroke-width="0.833333" stroke-linecap="round" stroke-linejoin="round"/>
</svg>
