<svg width="20" height="20" viewBox="0 0 20 20" fill="none" xmlns="http://www.w3.org/2000/svg">
<path d="M10 12.5C11.3807 12.5 12.5 11.3807 12.5 10C12.5 8.61925 11.3807 7.5 10 7.5C8.61925 7.5 7.5 8.61925 7.5 10C7.5 11.3807 8.61925 12.5 10 12.5Z" stroke="#7E7F83" stroke-width="0.833333" stroke-linecap="round" stroke-linejoin="round"/>
<path d="M16.3523 8.66285L15.4376 6.45402L16.667 5.00002L15.0003 3.33335L13.5542 4.56915L11.2985 3.64147L10.7797 1.66669H9.15116L8.62458 3.66763L6.42067 4.59665L5.00033 3.33335L3.33366 5.00002L4.5448 6.49073L3.64408 8.70527L1.66699 9.16669V10.8334L3.66792 11.3796L4.59678 13.5831L3.33366 15L5.00033 16.6667L6.49296 15.4503L8.66449 16.3436L9.16699 18.3334H10.8337L11.3374 16.3444L13.5462 15.4296C13.9144 15.6928 15.0003 16.6667 15.0003 16.6667L16.667 15L15.4302 13.5412L16.3452 11.3317L18.3336 10.8144L18.3337 9.16669L16.3523 8.66285Z" stroke="#7E7F83" stroke-width="0.833333" stroke-linecap="round" stroke-linejoin="round"/>
</svg>
