<svg width="19" height="19" viewBox="0 0 19 19" fill="none" xmlns="http://www.w3.org/2000/svg">
<path d="M17.4168 9.49998C17.4168 5.12772 13.8724 1.58331 9.50016 1.58331C5.12791 1.58331 1.5835 5.12772 1.5835 9.49998C1.5835 13.8722 5.12791 17.4166 9.50016 17.4166" stroke="#7E7F83" stroke-width="0.833333" stroke-linecap="round" stroke-linejoin="round"/>
<path d="M10.2915 1.62238C10.2915 1.62238 12.6665 4.74995 12.6665 9.49992" stroke="#7E7F83" stroke-width="0.833333" stroke-linecap="round" stroke-linejoin="round"/>
<path d="M8.7085 17.3776C8.7085 17.3776 6.3335 14.2499 6.3335 9.49992C6.3335 4.74995 8.7085 1.62238 8.7085 1.62238" stroke="#7E7F83" stroke-width="0.833333" stroke-linecap="round" stroke-linejoin="round"/>
<path d="M2.08203 12.2708H9.50023" stroke="#7E7F83" stroke-width="0.833333" stroke-linecap="round" stroke-linejoin="round"/>
<path d="M2.08203 6.72919H16.9185" stroke="#7E7F83" stroke-width="0.833333" stroke-linecap="round" stroke-linejoin="round"/>
<path fill-rule="evenodd" clip-rule="evenodd" d="M17.321 14.1846C17.7119 14.425 17.6879 15.0103 17.2852 15.056L15.2533 15.2863L14.342 17.1168C14.1614 17.4796 13.6032 17.302 13.5109 16.8524L12.5171 12.0106C12.4391 11.6306 12.7807 11.3914 13.111 11.5947L17.321 14.1846Z" stroke="#7E7F83" stroke-width="0.833333"/>
</svg>
