<svg width="20" height="20" viewBox="0 0 20 20" fill="none" xmlns="http://www.w3.org/2000/svg">
<path d="M5.83301 15H8.74967H11.6663" stroke="#7E7F83" stroke-width="0.833333" stroke-linecap="round" stroke-linejoin="round"/>
<path d="M5.83301 11.6667H6.24967H6.66634" stroke="#7E7F83" stroke-width="0.833333" stroke-linecap="round" stroke-linejoin="round"/>
<path d="M5.83301 8.33331H7.08301H8.33301" stroke="#7E7F83" stroke-width="0.833333" stroke-linecap="round" stroke-linejoin="round"/>
<path d="M5.83301 1.66669H13.7497L17.4997 5.41669V15.8334" stroke="#7E7F83" stroke-width="0.833333" stroke-linecap="round" stroke-linejoin="round"/>
<path d="M2.5 17.0834V5.41669C2.5 4.72633 3.05964 4.16669 3.75 4.16669H11.8762C12.0088 4.16669 12.136 4.21936 12.2297 4.31314L14.8536 6.9369C14.9473 7.03068 15 7.15785 15 7.29046V17.0834C15 17.7737 14.4403 18.3334 13.75 18.3334H3.75C3.05964 18.3334 2.5 17.7737 2.5 17.0834Z" stroke="#7E7F83" stroke-width="0.833333" stroke-linecap="round" stroke-linejoin="round"/>
<path d="M11.667 4.16669V7.00002C11.667 7.27616 11.8908 7.50002 12.167 7.50002H15.0003" stroke="#7E7F83" stroke-width="0.833333" stroke-linecap="round" stroke-linejoin="round"/>
</svg>
