<svg width="34" height="35" viewBox="0 0 34 35" fill="none" xmlns="http://www.w3.org/2000/svg">
<g filter="url(#filter0_i_54_6)">
<rect y="0.5" width="34" height="34" rx="6" fill="url(#paint0_linear_54_6)"/>
<path d="M18.2439 25.1875C14.1187 27.8283 8.73104 27.4332 5.1553 24.2333C3.74814 19.6456 5.65649 14.5952 9.7816 11.9544C13.9067 9.31355 19.2944 9.70871 22.8701 12.9086C24.2773 17.4963 22.3786 22.5467 18.2439 25.1875Z" fill="url(#paint1_linear_54_6)"/>
<path opacity="0.5" d="M7.13153 25.0719C8.26532 25.0719 9.18444 24.1528 9.18444 23.019C9.18444 21.8852 8.26532 20.9661 7.13153 20.9661C5.99773 20.9661 5.07861 21.8852 5.07861 23.019C5.07861 24.1528 5.99773 25.0719 7.13153 25.0719Z" fill="url(#paint2_linear_54_6)"/>
<path d="M21.6944 20.2143C20.7884 24.455 16.6055 27.1537 12.3743 26.2477C10.9479 25.9393 9.70457 25.2647 8.70221 24.349C6.7264 22.5274 5.73367 19.742 6.34087 16.9277C7.24686 12.6869 11.4298 9.98825 15.6609 10.8942C16.9813 11.1834 18.1572 11.7809 19.121 12.6098C19.1981 12.6773 19.2752 12.7447 19.3427 12.8122C21.3185 14.6242 22.3016 17.4096 21.6944 20.2143Z" fill="url(#paint3_linear_54_6)"/>
<path opacity="0.5" d="M20.9133 16.1854C22.0471 16.1854 22.9662 15.2662 22.9662 14.1324C22.9662 12.9986 22.0471 12.0795 20.9133 12.0795C19.7795 12.0795 18.8604 12.9986 18.8604 14.1324C18.8604 15.2662 19.7795 16.1854 20.9133 16.1854Z" fill="url(#paint4_linear_54_6)"/>
<path d="M19.3523 12.8024C15.8055 12.0699 12.2105 13.8337 10.6491 17.0335C9.14556 20.1081 9.8395 23.8669 12.3743 26.2379C10.9479 25.9295 9.70457 25.2548 8.70221 24.3392C6.7264 22.5176 5.73367 19.7322 6.34087 16.9179C7.24686 12.6771 11.4298 9.97842 15.6609 10.8844C16.8464 11.135 17.9066 11.7422 17.9066 11.7422C18.5427 12.1084 19.0246 12.5036 19.3523 12.8024Z" fill="url(#paint5_linear_54_6)"/>
<path d="M25.4048 10.4894C25.1735 11.4243 24.5856 12.1857 23.9013 12.4266C23.4194 11.8965 23.2556 10.9423 23.4869 10.0075C23.7182 9.07255 24.3061 8.31114 24.9904 8.07019C25.4723 8.60028 25.6361 9.55446 25.4048 10.4894Z" fill="url(#paint6_linear_54_6)"/>
<path d="M27.4676 15.4722C25.8773 15.0771 24.5858 14.0747 24.1714 12.9182C25.0774 12.0893 26.6869 11.8194 28.2772 12.2146C29.8675 12.6097 31.159 13.6121 31.5735 14.7687C30.6771 15.5879 29.0579 15.8674 27.4676 15.4722Z" fill="url(#paint7_linear_54_6)"/>
</g>
<defs>
<filter id="filter0_i_54_6" x="0" y="0.5" width="34" height="35" filterUnits="userSpaceOnUse" color-interpolation-filters="sRGB">
<feFlood flood-opacity="0" result="BackgroundImageFix"/>
<feBlend mode="normal" in="SourceGraphic" in2="BackgroundImageFix" result="shape"/>
<feColorMatrix in="SourceAlpha" type="matrix" values="0 0 0 0 0 0 0 0 0 0 0 0 0 0 0 0 0 0 127 0" result="hardAlpha"/>
<feOffset dy="1"/>
<feGaussianBlur stdDeviation="0.5"/>
<feComposite in2="hardAlpha" operator="arithmetic" k2="-1" k3="1"/>
<feColorMatrix type="matrix" values="0 0 0 0 1 0 0 0 0 1 0 0 0 0 1 0 0 0 0.2 0"/>
<feBlend mode="normal" in2="shape" result="effect1_innerShadow_54_6"/>
</filter>
<linearGradient id="paint0_linear_54_6" x1="17" y1="0.5" x2="17" y2="34.5" gradientUnits="userSpaceOnUse">
<stop stop-color="#F26948"/>
<stop offset="1" stop-color="#EB4E27"/>
</linearGradient>
<linearGradient id="paint1_linear_54_6" x1="14.0133" y1="10.212" x2="14.0133" y2="26.9299" gradientUnits="userSpaceOnUse">
<stop stop-color="white"/>
<stop offset="1" stop-color="#FFEDEA" stop-opacity="0.25"/>
</linearGradient>
<linearGradient id="paint2_linear_54_6" x1="7.13153" y1="20.9661" x2="7.13153" y2="25.0719" gradientUnits="userSpaceOnUse">
<stop stop-color="white"/>
<stop offset="1" stop-color="#FFEDEA" stop-opacity="0.25"/>
</linearGradient>
<linearGradient id="paint3_linear_54_6" x1="14.0181" y1="10.7191" x2="14.0181" y2="26.4229" gradientUnits="userSpaceOnUse">
<stop stop-color="white"/>
<stop offset="1" stop-color="#FFEDEA" stop-opacity="0.25"/>
</linearGradient>
<linearGradient id="paint4_linear_54_6" x1="20.9133" y1="12.0795" x2="20.9133" y2="16.1854" gradientUnits="userSpaceOnUse">
<stop stop-color="white"/>
<stop offset="1" stop-color="#FFEDEA" stop-opacity="0.25"/>
</linearGradient>
<linearGradient id="paint5_linear_54_6" x1="12.7579" y1="10.7093" x2="12.7579" y2="26.2379" gradientUnits="userSpaceOnUse">
<stop stop-color="white"/>
<stop offset="1" stop-color="#FFEDEA" stop-opacity="0.25"/>
</linearGradient>
<linearGradient id="paint6_linear_54_6" x1="24.4459" y1="8.07019" x2="24.4459" y2="12.4266" gradientUnits="userSpaceOnUse">
<stop stop-color="white"/>
<stop offset="1" stop-color="#FFEDEA" stop-opacity="0.25"/>
</linearGradient>
<linearGradient id="paint7_linear_54_6" x1="27.8724" y1="12.0356" x2="27.8724" y2="15.6494" gradientUnits="userSpaceOnUse">
<stop stop-color="white"/>
<stop offset="1" stop-color="#FFEDEA" stop-opacity="0.25"/>
</linearGradient>
</defs>
</svg>
