<svg width="383" height="35" viewBox="0 0 383 35" fill="none" xmlns="http://www.w3.org/2000/svg">
<path d="M0.5 6C0.5 2.96243 2.96243 0.5 6 0.5H321.5V34.5H6C2.96244 34.5 0.5 32.0376 0.5 29V6Z" fill="#1B1C20"/>
<path d="M0.5 6C0.5 2.96243 2.96243 0.5 6 0.5H321.5V34.5H6C2.96244 34.5 0.5 32.0376 0.5 29V6Z" stroke="#2B2C2E"/>
<g filter="url(#filter0_d_177_124)">
<path d="M11.0739 25.8636V15.3636H12.2074V16.5767H12.3466C12.4328 16.4441 12.5521 16.2751 12.7045 16.0696C12.8603 15.8608 13.0824 15.6752 13.3707 15.5128C13.6624 15.3471 14.0568 15.2642 14.554 15.2642C15.197 15.2642 15.7637 15.425 16.2543 15.7464C16.7448 16.0679 17.1276 16.5237 17.4027 17.1136C17.6778 17.7036 17.8153 18.3996 17.8153 19.2017C17.8153 20.0104 17.6778 20.7114 17.4027 21.3047C17.1276 21.8946 16.7464 22.352 16.2592 22.6768C15.772 22.9983 15.2102 23.1591 14.5739 23.1591C14.0833 23.1591 13.6906 23.0779 13.3956 22.9155C13.1006 22.7498 12.8736 22.5625 12.7145 22.3537C12.5554 22.1416 12.4328 21.9659 12.3466 21.8267H12.2472V25.8636H11.0739ZM12.2273 19.1818C12.2273 19.7585 12.3118 20.2673 12.4808 20.7081C12.6499 21.1456 12.8968 21.4886 13.2216 21.7372C13.5464 21.9825 13.9441 22.1051 14.4148 22.1051C14.9053 22.1051 15.3146 21.9759 15.6428 21.7173C15.9742 21.4555 16.2228 21.1042 16.3885 20.6634C16.5575 20.2192 16.642 19.7254 16.642 19.1818C16.642 18.6449 16.5592 18.161 16.3935 17.7301C16.2311 17.2959 15.9841 16.9529 15.6527 16.701C15.3246 16.4458 14.9119 16.3182 14.4148 16.3182C13.9375 16.3182 13.5365 16.4392 13.2116 16.6811C12.8868 16.9197 12.6416 17.2545 12.4759 17.6854C12.3101 18.1129 12.2273 18.6117 12.2273 19.1818ZM20.0251 23V15.3636H21.1586V16.517H21.2382C21.3774 16.1392 21.6293 15.8326 21.9939 15.5973C22.3584 15.362 22.7694 15.2443 23.2268 15.2443C23.313 15.2443 23.4207 15.246 23.55 15.2493C23.6792 15.2526 23.777 15.2576 23.8433 15.2642V16.4574C23.8035 16.4474 23.7124 16.4325 23.5699 16.4126C23.4307 16.3894 23.2832 16.3778 23.1274 16.3778C22.7562 16.3778 22.4247 16.4557 22.1331 16.6115C21.8447 16.764 21.616 16.9761 21.447 17.2479C21.2813 17.5163 21.1984 17.8229 21.1984 18.1676V23H20.0251ZM28.5239 23.1591C27.8346 23.1591 27.2297 22.995 26.7093 22.6669C26.1923 22.3388 25.7879 21.8797 25.4963 21.2898C25.2079 20.6998 25.0637 20.0104 25.0637 19.2216C25.0637 18.4261 25.2079 17.7318 25.4963 17.1385C25.7879 16.5452 26.1923 16.0845 26.7093 15.7564C27.2297 15.4283 27.8346 15.2642 28.5239 15.2642C29.2133 15.2642 29.8166 15.4283 30.3336 15.7564C30.854 16.0845 31.2583 16.5452 31.5467 17.1385C31.8383 17.7318 31.9842 18.4261 31.9842 19.2216C31.9842 20.0104 31.8383 20.6998 31.5467 21.2898C31.2583 21.8797 30.854 22.3388 30.3336 22.6669C29.8166 22.995 29.2133 23.1591 28.5239 23.1591ZM28.5239 22.1051C29.0476 22.1051 29.4785 21.9709 29.8166 21.7024C30.1546 21.4339 30.4049 21.081 30.5673 20.6435C30.7297 20.206 30.8109 19.732 30.8109 19.2216C30.8109 18.7112 30.7297 18.2356 30.5673 17.7947C30.4049 17.3539 30.1546 16.9976 29.8166 16.7259C29.4785 16.4541 29.0476 16.3182 28.5239 16.3182C28.0003 16.3182 27.5694 16.4541 27.2313 16.7259C26.8933 16.9976 26.643 17.3539 26.4806 17.7947C26.3182 18.2356 26.237 18.7112 26.237 19.2216C26.237 19.732 26.3182 20.206 26.4806 20.6435C26.643 21.081 26.8933 21.4339 27.2313 21.7024C27.5694 21.9709 28.0003 22.1051 28.5239 22.1051ZM34.1952 23V15.3636H35.3287V16.5568H35.4281C35.5872 16.1491 35.8441 15.8326 36.1987 15.6072C36.5534 15.3786 36.9793 15.2642 37.4764 15.2642C37.9802 15.2642 38.3995 15.3786 38.7343 15.6072C39.0723 15.8326 39.3358 16.1491 39.5247 16.5568H39.6043C39.7998 16.1624 40.0932 15.8492 40.4843 15.6172C40.8754 15.3819 41.3443 15.2642 41.8912 15.2642C42.574 15.2642 43.1325 15.478 43.5666 15.9055C44.0008 16.3298 44.2179 16.991 44.2179 17.8892V23H43.0446V17.8892C43.0446 17.3258 42.8905 16.9231 42.5823 16.6811C42.274 16.4392 41.9111 16.3182 41.4935 16.3182C40.9566 16.3182 40.5406 16.4806 40.2456 16.8054C39.9506 17.1269 39.8031 17.5346 39.8031 18.0284V23H38.61V17.7699C38.61 17.3357 38.4691 16.986 38.1874 16.7209C37.9057 16.4524 37.5427 16.3182 37.0986 16.3182C36.7937 16.3182 36.5086 16.3994 36.2435 16.5618C35.9817 16.7242 35.7695 16.9496 35.6071 17.2379C35.448 17.523 35.3685 17.8527 35.3685 18.2273V23H34.1952ZM49.8854 23.1591C49.196 23.1591 48.5912 22.995 48.0708 22.6669C47.5538 22.3388 47.1494 21.8797 46.8577 21.2898C46.5694 20.6998 46.4252 20.0104 46.4252 19.2216C46.4252 18.4261 46.5694 17.7318 46.8577 17.1385C47.1494 16.5452 47.5538 16.0845 48.0708 15.7564C48.5912 15.4283 49.196 15.2642 49.8854 15.2642C50.5748 15.2642 51.178 15.4283 51.6951 15.7564C52.2155 16.0845 52.6198 16.5452 52.9082 17.1385C53.1998 17.7318 53.3457 18.4261 53.3457 19.2216C53.3457 20.0104 53.1998 20.6998 52.9082 21.2898C52.6198 21.8797 52.2155 22.3388 51.6951 22.6669C51.178 22.995 50.5748 23.1591 49.8854 23.1591ZM49.8854 22.1051C50.4091 22.1051 50.84 21.9709 51.178 21.7024C51.5161 21.4339 51.7664 21.081 51.9288 20.6435C52.0912 20.206 52.1724 19.732 52.1724 19.2216C52.1724 18.7112 52.0912 18.2356 51.9288 17.7947C51.7664 17.3539 51.5161 16.9976 51.178 16.7259C50.84 16.4541 50.4091 16.3182 49.8854 16.3182C49.3618 16.3182 48.9309 16.4541 48.5928 16.7259C48.2548 16.9976 48.0045 17.3539 47.8421 17.7947C47.6797 18.2356 47.5985 18.7112 47.5985 19.2216C47.5985 19.732 47.6797 20.206 47.8421 20.6435C48.0045 21.081 48.2548 21.4339 48.5928 21.7024C48.9309 21.9709 49.3618 22.1051 49.8854 22.1051ZM58.6589 23.1591C57.943 23.1591 57.3266 22.9901 56.8095 22.652C56.2925 22.3139 55.8947 21.8482 55.6163 21.255C55.3379 20.6617 55.1987 19.9839 55.1987 19.2216C55.1987 18.446 55.3412 17.7616 55.6263 17.1683C55.9146 16.5717 56.3157 16.1061 56.8294 15.7713C57.3464 15.4332 57.9497 15.2642 58.6391 15.2642C59.176 15.2642 59.6599 15.3636 60.0908 15.5625C60.5216 15.7614 60.8746 16.0398 61.1497 16.3977C61.4248 16.7557 61.5955 17.1733 61.6618 17.6506H60.4885C60.399 17.3026 60.2001 16.9943 59.8919 16.7259C59.587 16.4541 59.176 16.3182 58.6589 16.3182C58.2016 16.3182 57.8005 16.4375 57.4558 16.6761C57.1144 16.9115 56.8476 17.2446 56.6554 17.6754C56.4665 18.103 56.372 18.6051 56.372 19.1818C56.372 19.7718 56.4648 20.2855 56.6504 20.723C56.8393 21.1605 57.1045 21.5002 57.4459 21.7422C57.7906 21.9841 58.1949 22.1051 58.6589 22.1051C58.9639 22.1051 59.2406 22.0521 59.4892 21.946C59.7378 21.84 59.9482 21.6875 60.1206 21.4886C60.2929 21.2898 60.4156 21.0511 60.4885 20.7727H61.6618C61.5955 21.2235 61.4314 21.6295 61.1696 21.9908C60.9111 22.3487 60.568 22.6338 60.1405 22.8459C59.7162 23.0547 59.2224 23.1591 58.6589 23.1591ZM66.8993 23.1591C66.2099 23.1591 65.605 22.995 65.0846 22.6669C64.5676 22.3388 64.1632 21.8797 63.8716 21.2898C63.5832 20.6998 63.439 20.0104 63.439 19.2216C63.439 18.4261 63.5832 17.7318 63.8716 17.1385C64.1632 16.5452 64.5676 16.0845 65.0846 15.7564C65.605 15.4283 66.2099 15.2642 66.8993 15.2642C67.5887 15.2642 68.1919 15.4283 68.7089 15.7564C69.2293 16.0845 69.6336 16.5452 69.922 17.1385C70.2137 17.7318 70.3595 18.4261 70.3595 19.2216C70.3595 20.0104 70.2137 20.6998 69.922 21.2898C69.6336 21.8797 69.2293 22.3388 68.7089 22.6669C68.1919 22.995 67.5887 23.1591 66.8993 23.1591ZM66.8993 22.1051C67.4229 22.1051 67.8538 21.9709 68.1919 21.7024C68.5299 21.4339 68.7802 21.081 68.9426 20.6435C69.105 20.206 69.1862 19.732 69.1862 19.2216C69.1862 18.7112 69.105 18.2356 68.9426 17.7947C68.7802 17.3539 68.5299 16.9976 68.1919 16.7259C67.8538 16.4541 67.4229 16.3182 66.8993 16.3182C66.3756 16.3182 65.9447 16.4541 65.6066 16.7259C65.2686 16.9976 65.0183 17.3539 64.8559 17.7947C64.6935 18.2356 64.6123 18.7112 64.6123 19.2216C64.6123 19.732 64.6935 20.206 64.8559 20.6435C65.0183 21.081 65.2686 21.4339 65.6066 21.7024C65.9447 21.9709 66.3756 22.1051 66.8993 22.1051ZM75.454 23.1591C74.8177 23.1591 74.2559 22.9983 73.7687 22.6768C73.2814 22.352 72.9003 21.8946 72.6252 21.3047C72.3501 20.7114 72.2125 20.0104 72.2125 19.2017C72.2125 18.3996 72.3501 17.7036 72.6252 17.1136C72.9003 16.5237 73.2831 16.0679 73.7736 15.7464C74.2642 15.425 74.8309 15.2642 75.4739 15.2642C75.9711 15.2642 76.3638 15.3471 76.6522 15.5128C76.9438 15.6752 77.1659 15.8608 77.3184 16.0696C77.4741 16.2751 77.5951 16.4441 77.6813 16.5767H77.7807V12.8182H78.954V23H77.8205V21.8267H77.6813C77.5951 21.9659 77.4725 22.1416 77.3134 22.3537C77.1543 22.5625 76.9273 22.7498 76.6323 22.9155C76.3373 23.0779 75.9446 23.1591 75.454 23.1591ZM75.6131 22.1051C76.0838 22.1051 76.4815 21.9825 76.8063 21.7372C77.1311 21.4886 77.378 21.1456 77.5471 20.7081C77.7161 20.2673 77.8006 19.7585 77.8006 19.1818C77.8006 18.6117 77.7178 18.1129 77.552 17.6854C77.3863 17.2545 77.1411 16.9197 76.8162 16.6811C76.4914 16.4392 76.0904 16.3182 75.6131 16.3182C75.116 16.3182 74.7017 16.4458 74.3702 16.701C74.0421 16.9529 73.7952 17.2959 73.6295 17.7301C73.467 18.161 73.3858 18.6449 73.3858 19.1818C73.3858 19.7254 73.4687 20.2192 73.6344 20.6634C73.8035 21.1042 74.052 21.4555 74.3802 21.7173C74.7116 21.9759 75.1226 22.1051 75.6131 22.1051ZM84.8875 23.1591C84.1517 23.1591 83.517 22.9967 82.9834 22.6719C82.4531 22.3438 82.0438 21.8864 81.7554 21.2997C81.4704 20.7098 81.3279 20.0237 81.3279 19.2415C81.3279 18.4593 81.4704 17.7699 81.7554 17.1733C82.0438 16.5734 82.4448 16.1061 82.9585 15.7713C83.4756 15.4332 84.0788 15.2642 84.7682 15.2642C85.1659 15.2642 85.5587 15.3305 85.9465 15.4631C86.3343 15.5956 86.6872 15.8111 87.0054 16.1094C87.3236 16.4044 87.5772 16.7955 87.7661 17.2827C87.955 17.7699 88.0495 18.3698 88.0495 19.0824V19.5795H82.1631V18.5653H86.8563C86.8563 18.1345 86.7701 17.75 86.5977 17.4119C86.4287 17.0739 86.1868 16.8071 85.8719 16.6115C85.5603 16.416 85.1924 16.3182 84.7682 16.3182C84.3009 16.3182 83.8965 16.4342 83.5551 16.6662C83.2171 16.8949 82.9569 17.1932 82.7746 17.5611C82.5923 17.929 82.5012 18.3234 82.5012 18.7443V19.4205C82.5012 19.9972 82.6006 20.486 82.7995 20.8871C83.0016 21.2848 83.2817 21.5881 83.6397 21.7969C83.9976 22.0024 84.4136 22.1051 84.8875 22.1051C85.1958 22.1051 85.4742 22.062 85.7227 21.9759C85.9746 21.8864 86.1917 21.7538 86.374 21.5781C86.5563 21.3991 86.6972 21.1771 86.7966 20.9119L87.9301 21.2301C87.8108 21.6146 87.6103 21.9527 87.3286 22.2443C87.0468 22.5327 86.6988 22.758 86.2845 22.9205C85.8702 23.0795 85.4046 23.1591 84.8875 23.1591ZM90.2344 23V22.1051L93.5952 18.4261C93.9896 17.9953 94.3144 17.6207 94.5696 17.3026C94.8248 16.9811 95.0137 16.6795 95.1364 16.3977C95.2623 16.1127 95.3253 15.8144 95.3253 15.5028C95.3253 15.1449 95.2391 14.835 95.0668 14.5732C94.8977 14.3113 94.6657 14.1091 94.3707 13.9666C94.0757 13.8241 93.7443 13.7528 93.3764 13.7528C92.9853 13.7528 92.6439 13.834 92.3523 13.9964C92.0639 14.1555 91.8402 14.3793 91.6811 14.6676C91.5253 14.956 91.4474 15.294 91.4474 15.6818H90.2741C90.2741 15.0852 90.4117 14.5616 90.6868 14.1108C90.9619 13.66 91.3364 13.3087 91.8104 13.0568C92.2876 12.8049 92.8229 12.679 93.4162 12.679C94.0128 12.679 94.5414 12.8049 95.0021 13.0568C95.4628 13.3087 95.8241 13.6484 96.0859 14.076C96.3478 14.5036 96.4787 14.9792 96.4787 15.5028C96.4787 15.8774 96.4107 16.2436 96.2749 16.6016C96.1423 16.9562 95.9103 17.3523 95.5788 17.7898C95.2507 18.224 94.795 18.7543 94.2116 19.3807L91.9247 21.8267V21.9062H96.6577V23H90.2344ZM102.313 23.1392C101.729 23.1392 101.204 23.0232 100.737 22.7912C100.269 22.5592 99.8949 22.241 99.6132 21.8366C99.3314 21.4323 99.1773 20.9716 99.1508 20.4545H100.344C100.39 20.9152 100.599 21.2964 100.97 21.598C101.345 21.8963 101.792 22.0455 102.313 22.0455C102.73 22.0455 103.102 21.9477 103.426 21.7521C103.755 21.5566 104.011 21.2881 104.197 20.9467C104.386 20.602 104.48 20.2126 104.48 19.7784C104.48 19.3343 104.383 18.9382 104.187 18.5902C103.995 18.2389 103.73 17.9621 103.392 17.7599C103.054 17.5578 102.667 17.455 102.233 17.4517C101.922 17.4484 101.602 17.4964 101.274 17.5959C100.946 17.692 100.675 17.8163 100.463 17.9688L99.3099 17.8295L99.9264 12.8182H105.216V13.9119H100.96L100.603 16.9148H100.662C100.871 16.7491 101.133 16.6115 101.448 16.5021C101.763 16.3928 102.091 16.3381 102.432 16.3381C103.055 16.3381 103.61 16.4872 104.098 16.7855C104.588 17.0805 104.973 17.4848 105.251 17.9986C105.533 18.5123 105.674 19.099 105.674 19.7585C105.674 20.4081 105.528 20.9882 105.236 21.4986C104.948 22.0057 104.55 22.4067 104.043 22.7017C103.536 22.9934 102.959 23.1392 102.313 23.1392Z" fill="#7E7F83"/>
</g>
<g filter="url(#filter1_i_177_124)">
<path d="M322 0H377C380.314 0 383 2.68629 383 6V29C383 32.3137 380.314 35 377 35H322V0Z" fill="url(#paint0_linear_177_124)"/>
<path d="M342.773 15H341.364C341.28 14.5947 341.134 14.2386 340.926 13.9318C340.722 13.625 340.472 13.3674 340.176 13.1591C339.884 12.947 339.561 12.7879 339.205 12.6818C338.848 12.5758 338.477 12.5227 338.091 12.5227C337.386 12.5227 336.748 12.7008 336.176 13.0568C335.608 13.4129 335.155 13.9375 334.818 14.6307C334.485 15.3239 334.318 16.1742 334.318 17.1818C334.318 18.1894 334.485 19.0398 334.818 19.733C335.155 20.4261 335.608 20.9508 336.176 21.3068C336.748 21.6629 337.386 21.8409 338.091 21.8409C338.477 21.8409 338.848 21.7879 339.205 21.6818C339.561 21.5758 339.884 21.4186 340.176 21.2102C340.472 20.9981 340.722 20.7386 340.926 20.4318C341.134 20.1212 341.28 19.7652 341.364 19.3636H342.773C342.667 19.9583 342.473 20.4905 342.193 20.9602C341.913 21.4299 341.564 21.8295 341.148 22.1591C340.731 22.4848 340.263 22.733 339.744 22.9034C339.229 23.0739 338.678 23.1591 338.091 23.1591C337.098 23.1591 336.216 22.9167 335.443 22.4318C334.67 21.947 334.063 21.2576 333.619 20.3636C333.176 19.4697 332.955 18.4091 332.955 17.1818C332.955 15.9545 333.176 14.8939 333.619 14C334.063 13.1061 334.67 12.4167 335.443 11.9318C336.216 11.447 337.098 11.2045 338.091 11.2045C338.678 11.2045 339.229 11.2898 339.744 11.4602C340.263 11.6307 340.731 11.8807 341.148 12.2102C341.564 12.536 341.913 12.9337 342.193 13.4034C342.473 13.8693 342.667 14.4015 342.773 15ZM348.893 23.1818C348.105 23.1818 347.414 22.9943 346.819 22.6193C346.229 22.2443 345.766 21.7197 345.433 21.0455C345.104 20.3712 344.939 19.5833 344.939 18.6818C344.939 17.7727 345.104 16.9792 345.433 16.3011C345.766 15.6231 346.229 15.0966 346.819 14.7216C347.414 14.3466 348.105 14.1591 348.893 14.1591C349.681 14.1591 350.371 14.3466 350.962 14.7216C351.556 15.0966 352.018 15.6231 352.348 16.3011C352.681 16.9792 352.848 17.7727 352.848 18.6818C352.848 19.5833 352.681 20.3712 352.348 21.0455C352.018 21.7197 351.556 22.2443 350.962 22.6193C350.371 22.9943 349.681 23.1818 348.893 23.1818ZM348.893 21.9773C349.492 21.9773 349.984 21.8239 350.371 21.517C350.757 21.2102 351.043 20.8068 351.229 20.3068C351.414 19.8068 351.507 19.2652 351.507 18.6818C351.507 18.0985 351.414 17.5549 351.229 17.0511C351.043 16.5473 350.757 16.1402 350.371 15.8295C349.984 15.5189 349.492 15.3636 348.893 15.3636C348.295 15.3636 347.802 15.5189 347.416 15.8295C347.03 16.1402 346.744 16.5473 346.558 17.0511C346.373 17.5549 346.28 18.0985 346.28 18.6818C346.28 19.2652 346.373 19.8068 346.558 20.3068C346.744 20.8068 347.03 21.2102 347.416 21.517C347.802 21.8239 348.295 21.9773 348.893 21.9773ZM355.375 26.2727V14.2727H356.67V15.6591H356.829C356.928 15.5076 357.064 15.3144 357.238 15.0795C357.416 14.8409 357.67 14.6288 358 14.4432C358.333 14.2538 358.784 14.1591 359.352 14.1591C360.087 14.1591 360.735 14.3428 361.295 14.7102C361.856 15.0777 362.293 15.5985 362.608 16.2727C362.922 16.947 363.079 17.7424 363.079 18.6591C363.079 19.5833 362.922 20.3845 362.608 21.0625C362.293 21.7367 361.858 22.2595 361.301 22.6307C360.744 22.9981 360.102 23.1818 359.375 23.1818C358.814 23.1818 358.365 23.089 358.028 22.9034C357.691 22.714 357.432 22.5 357.25 22.2614C357.068 22.0189 356.928 21.8182 356.829 21.6591H356.716V26.2727H355.375ZM356.693 18.6364C356.693 19.2955 356.79 19.8769 356.983 20.3807C357.176 20.8807 357.458 21.2727 357.829 21.5568C358.201 21.8371 358.655 21.9773 359.193 21.9773C359.754 21.9773 360.221 21.8295 360.596 21.5341C360.975 21.2348 361.259 20.8333 361.449 20.3295C361.642 19.822 361.738 19.2576 361.738 18.6364C361.738 18.0227 361.644 17.4697 361.454 16.9773C361.269 16.4811 360.987 16.089 360.608 15.8011C360.233 15.5095 359.761 15.3636 359.193 15.3636C358.647 15.3636 358.189 15.5019 357.818 15.7784C357.447 16.0511 357.166 16.4337 356.977 16.9261C356.788 17.4148 356.693 17.9848 356.693 18.6364ZM366.156 26.2727C365.929 26.2727 365.726 26.2538 365.548 26.2159C365.37 26.1818 365.247 26.1477 365.179 26.1136L365.52 24.9318C365.845 25.0152 366.133 25.0455 366.383 25.0227C366.633 25 366.855 24.8883 367.048 24.6875C367.245 24.4905 367.425 24.1705 367.588 23.7273L367.838 23.0455L364.61 14.2727H366.065L368.474 21.2273H368.565L370.974 14.2727H372.429L368.724 24.2727C368.557 24.7235 368.351 25.0966 368.105 25.392C367.859 25.6913 367.573 25.9129 367.247 26.0568C366.925 26.2008 366.561 26.2727 366.156 26.2727Z" fill="#FBFCFE"/>
</g>
<g filter="url(#filter2_b_177_124)">
<rect width="383" height="35" rx="6" fill="#1B1C20" fill-opacity="0.9"/>
<path d="M117 17.5H118.05C118.299 17.5 118.5 17.7015 118.5 17.95V23.05C118.5 23.2985 118.299 23.5 118.05 23.5H109.95C109.701 23.5 109.5 23.2985 109.5 23.05V17.95C109.5 17.7015 109.701 17.5 109.95 17.5H111M117 17.5V14.5C117 13.5 116.4 11.5 114 11.5C111.6 11.5 111 13.5 111 14.5V17.5M117 17.5H111" stroke="#7E7F83" stroke-width="0.833333" stroke-linecap="round" stroke-linejoin="round"/>
<path d="M135.801 14.8636C135.741 14.3598 135.5 13.9688 135.075 13.6903C134.651 13.4119 134.131 13.2727 133.514 13.2727C133.063 13.2727 132.669 13.3456 132.331 13.4915C131.996 13.6373 131.734 13.8378 131.545 14.093C131.36 14.3482 131.267 14.6383 131.267 14.9631C131.267 15.2348 131.332 15.4685 131.461 15.6641C131.594 15.8563 131.763 16.017 131.968 16.1463C132.174 16.2723 132.389 16.3767 132.614 16.4595C132.84 16.5391 133.047 16.6037 133.236 16.6534L134.27 16.9318C134.535 17.0014 134.83 17.0975 135.155 17.2202C135.483 17.3428 135.796 17.5102 136.094 17.7223C136.396 17.9311 136.645 18.1996 136.84 18.5277C137.036 18.8558 137.134 19.2585 137.134 19.7358C137.134 20.286 136.989 20.7831 136.701 21.2273C136.416 21.6714 135.998 22.0244 135.448 22.2862C134.901 22.5481 134.237 22.679 133.455 22.679C132.725 22.679 132.094 22.5613 131.56 22.326C131.03 22.0907 130.612 21.7625 130.308 21.3416C130.006 20.9207 129.835 20.4318 129.795 19.875H131.068C131.101 20.2595 131.231 20.5777 131.456 20.8295C131.685 21.0781 131.973 21.2637 132.321 21.3864C132.672 21.5057 133.05 21.5653 133.455 21.5653C133.925 21.5653 134.348 21.4891 134.722 21.3366C135.097 21.1809 135.393 20.9654 135.612 20.6903C135.831 20.4119 135.94 20.0871 135.94 19.7159C135.94 19.3778 135.846 19.1027 135.657 18.8906C135.468 18.6785 135.219 18.5062 134.911 18.3736C134.603 18.241 134.27 18.125 133.912 18.0256L132.659 17.6676C131.864 17.4389 131.234 17.1125 130.77 16.6882C130.306 16.264 130.074 15.7088 130.074 15.0227C130.074 14.4527 130.228 13.9555 130.536 13.5312C130.848 13.1037 131.265 12.7723 131.789 12.5369C132.316 12.2983 132.904 12.179 133.554 12.179C134.21 12.179 134.794 12.2966 135.304 12.532C135.814 12.764 136.219 13.0821 136.517 13.4865C136.819 13.8909 136.978 14.3499 136.994 14.8636H135.801ZM139.422 22.5V14.8636H140.595V22.5H139.422ZM140.018 13.5909C139.789 13.5909 139.592 13.513 139.427 13.3572C139.264 13.2015 139.183 13.0142 139.183 12.7955C139.183 12.5767 139.264 12.3894 139.427 12.2337C139.592 12.0779 139.789 12 140.018 12C140.247 12 140.442 12.0779 140.605 12.2337C140.771 12.3894 140.853 12.5767 140.853 12.7955C140.853 13.0142 140.771 13.2015 140.605 13.3572C140.442 13.513 140.247 13.5909 140.018 13.5909ZM144.337 12.3182V22.5H143.164V12.3182H144.337ZM153.15 14.8636L150.327 22.5H149.133L146.31 14.8636H147.582L149.69 20.9489H149.77L151.878 14.8636H153.15ZM158.047 22.6591C157.312 22.6591 156.677 22.4967 156.143 22.1719C155.613 21.8438 155.204 21.3864 154.915 20.7997C154.63 20.2098 154.488 19.5237 154.488 18.7415C154.488 17.9593 154.63 17.2699 154.915 16.6733C155.204 16.0734 155.605 15.6061 156.118 15.2713C156.635 14.9332 157.239 14.7642 157.928 14.7642C158.326 14.7642 158.719 14.8305 159.106 14.9631C159.494 15.0956 159.847 15.3111 160.165 15.6094C160.483 15.9044 160.737 16.2955 160.926 16.7827C161.115 17.2699 161.209 17.8698 161.209 18.5824V19.0795H155.323V18.0653H160.016C160.016 17.6345 159.93 17.25 159.758 16.9119C159.589 16.5739 159.347 16.3071 159.032 16.1115C158.72 15.916 158.352 15.8182 157.928 15.8182C157.461 15.8182 157.056 15.9342 156.715 16.1662C156.377 16.3949 156.117 16.6932 155.934 17.0611C155.752 17.429 155.661 17.8234 155.661 18.2443V18.9205C155.661 19.4972 155.76 19.986 155.959 20.3871C156.161 20.7848 156.442 21.0881 156.799 21.2969C157.157 21.5024 157.573 21.6051 158.047 21.6051C158.356 21.6051 158.634 21.562 158.883 21.4759C159.134 21.3864 159.352 21.2538 159.534 21.0781C159.716 20.8991 159.857 20.6771 159.956 20.4119L161.09 20.7301C160.971 21.1146 160.77 21.4527 160.488 21.7443C160.207 22.0327 159.859 22.258 159.444 22.4205C159.03 22.5795 158.564 22.6591 158.047 22.6591ZM163.414 22.5V14.8636H164.548V16.017H164.627C164.766 15.6392 165.018 15.3326 165.383 15.0973C165.747 14.862 166.158 14.7443 166.616 14.7443C166.702 14.7443 166.81 14.746 166.939 14.7493C167.068 14.7526 167.166 14.7576 167.232 14.7642V15.9574C167.193 15.9474 167.101 15.9325 166.959 15.9126C166.82 15.8894 166.672 15.8778 166.516 15.8778C166.145 15.8778 165.814 15.9557 165.522 16.1115C165.234 16.264 165.005 16.4761 164.836 16.7479C164.67 17.0163 164.587 17.3229 164.587 17.6676V22.5H163.414ZM178.81 16.5739L177.756 16.8722C177.689 16.6965 177.592 16.5258 177.462 16.3601C177.336 16.1911 177.164 16.0518 176.945 15.9425C176.727 15.8331 176.447 15.7784 176.105 15.7784C175.638 15.7784 175.248 15.8861 174.937 16.1016C174.629 16.3137 174.474 16.5838 174.474 16.9119C174.474 17.2036 174.581 17.4339 174.793 17.603C175.005 17.772 175.336 17.9129 175.787 18.0256L176.92 18.304C177.603 18.4697 178.112 18.7232 178.447 19.0646C178.781 19.4027 178.949 19.8385 178.949 20.3722C178.949 20.8097 178.823 21.2008 178.571 21.5455C178.322 21.8902 177.974 22.1619 177.527 22.3608C177.08 22.5597 176.559 22.6591 175.966 22.6591C175.187 22.6591 174.542 22.4901 174.032 22.152C173.522 21.8139 173.198 21.3201 173.063 20.6705L174.176 20.392C174.282 20.803 174.483 21.1113 174.778 21.3168C175.076 21.5223 175.465 21.625 175.946 21.625C176.493 21.625 176.927 21.509 177.249 21.277C177.573 21.0417 177.736 20.7599 177.736 20.4318C177.736 20.1667 177.643 19.9446 177.457 19.7656C177.272 19.5833 176.987 19.4474 176.602 19.358L175.33 19.0597C174.63 18.8939 174.116 18.6371 173.788 18.2891C173.464 17.9377 173.301 17.4986 173.301 16.9716C173.301 16.5407 173.422 16.1596 173.664 15.8281C173.909 15.4967 174.242 15.2365 174.663 15.0476C175.088 14.8587 175.568 14.7642 176.105 14.7642C176.861 14.7642 177.454 14.9299 177.885 15.2614C178.319 15.5928 178.627 16.0303 178.81 16.5739ZM184.456 14.8636V15.858H180.499V14.8636H184.456ZM181.652 13.0341H182.825V20.3125C182.825 20.6439 182.873 20.8925 182.97 21.0582C183.069 21.2206 183.195 21.33 183.347 21.3864C183.503 21.4394 183.667 21.4659 183.84 21.4659C183.969 21.4659 184.075 21.4593 184.158 21.446C184.241 21.4295 184.307 21.4162 184.357 21.4062L184.595 22.4602C184.516 22.4901 184.405 22.5199 184.262 22.5497C184.12 22.5829 183.939 22.5994 183.72 22.5994C183.389 22.5994 183.064 22.5282 182.746 22.3857C182.431 22.2431 182.169 22.026 181.96 21.7344C181.755 21.4427 181.652 21.0748 181.652 20.6307V13.0341ZM188.888 22.679C188.404 22.679 187.965 22.5878 187.571 22.4055C187.176 22.2199 186.863 21.9531 186.631 21.6051C186.399 21.2538 186.283 20.8295 186.283 20.3324C186.283 19.8949 186.369 19.5402 186.542 19.2685C186.714 18.9934 186.944 18.7779 187.233 18.6222C187.521 18.4664 187.839 18.3504 188.187 18.2741C188.538 18.1946 188.891 18.1316 189.246 18.0852C189.71 18.0256 190.086 17.9808 190.375 17.951C190.666 17.9179 190.878 17.8632 191.011 17.7869C191.147 17.7107 191.215 17.5781 191.215 17.3892V17.3494C191.215 16.8589 191.081 16.4777 190.812 16.206C190.547 15.9342 190.144 15.7983 189.604 15.7983C189.044 15.7983 188.605 15.9209 188.287 16.1662C187.968 16.4115 187.745 16.6733 187.615 16.9517L186.502 16.554C186.701 16.09 186.966 15.7287 187.297 15.4702C187.632 15.2083 187.997 15.026 188.391 14.9233C188.789 14.8172 189.18 14.7642 189.564 14.7642C189.81 14.7642 190.091 14.794 190.409 14.8537C190.731 14.91 191.041 15.0277 191.339 15.2067C191.641 15.3857 191.891 15.6558 192.09 16.017C192.289 16.3783 192.388 16.8622 192.388 17.4688V22.5H191.215V21.4659H191.155C191.076 21.6316 190.943 21.8089 190.757 21.9979C190.572 22.1868 190.325 22.3475 190.017 22.4801C189.708 22.6127 189.332 22.679 188.888 22.679ZM189.067 21.625C189.531 21.625 189.922 21.5339 190.24 21.3516C190.562 21.1693 190.804 20.9339 190.966 20.6456C191.132 20.3572 191.215 20.054 191.215 19.7358V18.6619C191.165 18.7216 191.056 18.7763 190.887 18.826C190.721 18.8724 190.529 18.9138 190.31 18.9503C190.095 18.9834 189.884 19.0133 189.679 19.0398C189.476 19.063 189.312 19.0829 189.186 19.0994C188.882 19.1392 188.596 19.2038 188.331 19.2933C188.069 19.3795 187.857 19.5104 187.695 19.6861C187.536 19.8584 187.456 20.0937 187.456 20.392C187.456 20.7997 187.607 21.108 187.909 21.3168C188.214 21.5223 188.6 21.625 189.067 21.625ZM198.271 14.8636V15.858H194.313V14.8636H198.271ZM195.467 13.0341H196.64V20.3125C196.64 20.6439 196.688 20.8925 196.784 21.0582C196.884 21.2206 197.01 21.33 197.162 21.3864C197.318 21.4394 197.482 21.4659 197.654 21.4659C197.783 21.4659 197.89 21.4593 197.972 21.446C198.055 21.4295 198.122 21.4162 198.171 21.4062L198.41 22.4602C198.33 22.4901 198.219 22.5199 198.077 22.5497C197.934 22.5829 197.754 22.5994 197.535 22.5994C197.203 22.5994 196.879 22.5282 196.56 22.3857C196.246 22.2431 195.984 22.026 195.775 21.7344C195.569 21.4427 195.467 21.0748 195.467 20.6307V13.0341ZM205.268 19.3778V14.8636H206.441V22.5H205.268V21.2074H205.189C205.01 21.5952 204.731 21.925 204.353 22.1967C203.975 22.4652 203.498 22.5994 202.921 22.5994C202.444 22.5994 202.02 22.495 201.649 22.2862C201.278 22.0741 200.986 21.7559 200.774 21.3317C200.562 20.9041 200.456 20.3655 200.456 19.7159V14.8636H201.629V19.6364C201.629 20.1932 201.785 20.6373 202.096 20.9688C202.411 21.3002 202.812 21.4659 203.299 21.4659C203.591 21.4659 203.888 21.3913 204.189 21.2422C204.494 21.093 204.749 20.8643 204.955 20.5561C205.164 20.2479 205.268 19.8551 205.268 19.3778ZM214.419 16.5739L213.365 16.8722C213.299 16.6965 213.201 16.5258 213.072 16.3601C212.946 16.1911 212.774 16.0518 212.555 15.9425C212.336 15.8331 212.056 15.7784 211.715 15.7784C211.248 15.7784 210.858 15.8861 210.547 16.1016C210.238 16.3137 210.084 16.5838 210.084 16.9119C210.084 17.2036 210.19 17.4339 210.402 17.603C210.615 17.772 210.946 17.9129 211.397 18.0256L212.53 18.304C213.213 18.4697 213.722 18.7232 214.057 19.0646C214.391 19.4027 214.559 19.8385 214.559 20.3722C214.559 20.8097 214.433 21.2008 214.181 21.5455C213.932 21.8902 213.584 22.1619 213.137 22.3608C212.689 22.5597 212.169 22.6591 211.576 22.6591C210.797 22.6591 210.152 22.4901 209.642 22.152C209.131 21.8139 208.808 21.3201 208.672 20.6705L209.786 20.392C209.892 20.803 210.092 21.1113 210.387 21.3168C210.686 21.5223 211.075 21.625 211.556 21.625C212.103 21.625 212.537 21.509 212.858 21.277C213.183 21.0417 213.346 20.7599 213.346 20.4318C213.346 20.1667 213.253 19.9446 213.067 19.7656C212.882 19.5833 212.597 19.4474 212.212 19.358L210.939 19.0597C210.24 18.8939 209.726 18.6371 209.398 18.2891C209.073 17.9377 208.911 17.4986 208.911 16.9716C208.911 16.5407 209.032 16.1596 209.274 15.8281C209.519 15.4967 209.852 15.2365 210.273 15.0476C210.697 14.8587 211.178 14.7642 211.715 14.7642C212.471 14.7642 213.064 14.9299 213.495 15.2614C213.929 15.5928 214.237 16.0303 214.419 16.5739ZM221.102 22.5V14.8636H222.236V16.017H222.315C222.455 15.6392 222.706 15.3326 223.071 15.0973C223.436 14.862 223.847 14.7443 224.304 14.7443C224.39 14.7443 224.498 14.746 224.627 14.7493C224.756 14.7526 224.854 14.7576 224.92 14.7642V15.9574C224.881 15.9474 224.79 15.9325 224.647 15.9126C224.508 15.8894 224.36 15.8778 224.205 15.8778C223.833 15.8778 223.502 15.9557 223.21 16.1115C222.922 16.264 222.693 16.4761 222.524 16.7479C222.358 17.0163 222.276 17.3229 222.276 17.6676V22.5H221.102ZM229.701 22.6591C228.965 22.6591 228.33 22.4967 227.796 22.1719C227.266 21.8438 226.857 21.3864 226.568 20.7997C226.283 20.2098 226.141 19.5237 226.141 18.7415C226.141 17.9593 226.283 17.2699 226.568 16.6733C226.857 16.0734 227.258 15.6061 227.772 15.2713C228.289 14.9332 228.892 14.7642 229.581 14.7642C229.979 14.7642 230.372 14.8305 230.76 14.9631C231.147 15.0956 231.5 15.3111 231.818 15.6094C232.137 15.9044 232.39 16.2955 232.579 16.7827C232.768 17.2699 232.863 17.8698 232.863 18.5824V19.0795H226.976V18.0653H231.669C231.669 17.6345 231.583 17.25 231.411 16.9119C231.242 16.5739 231 16.3071 230.685 16.1115C230.373 15.916 230.005 15.8182 229.581 15.8182C229.114 15.8182 228.71 15.9342 228.368 16.1662C228.03 16.3949 227.77 16.6932 227.588 17.0611C227.405 17.429 227.314 17.8234 227.314 18.2443V18.9205C227.314 19.4972 227.414 19.986 227.613 20.3871C227.815 20.7848 228.095 21.0881 228.453 21.2969C228.811 21.5024 229.227 21.6051 229.701 21.6051C230.009 21.6051 230.287 21.562 230.536 21.4759C230.788 21.3864 231.005 21.2538 231.187 21.0781C231.369 20.8991 231.51 20.6771 231.61 20.4119L232.743 20.7301C232.624 21.1146 232.423 21.4527 232.142 21.7443C231.86 22.0327 231.512 22.258 231.098 22.4205C230.683 22.5795 230.218 22.6591 229.701 22.6591ZM240.278 25.3636V21.3267H240.178C240.092 21.4659 239.969 21.6416 239.81 21.8537C239.651 22.0625 239.424 22.2498 239.129 22.4155C238.834 22.5779 238.441 22.6591 237.951 22.6591C237.314 22.6591 236.753 22.4983 236.265 22.1768C235.778 21.852 235.397 21.3946 235.122 20.8047C234.847 20.2114 234.709 19.5104 234.709 18.7017C234.709 17.8996 234.847 17.2036 235.122 16.6136C235.397 16.0237 235.78 15.5679 236.27 15.2464C236.761 14.925 237.328 14.7642 237.971 14.7642C238.468 14.7642 238.861 14.8471 239.149 15.0128C239.441 15.1752 239.663 15.3608 239.815 15.5696C239.971 15.7751 240.092 15.9441 240.178 16.0767H240.317V14.8636H241.451V25.3636H240.278ZM238.11 21.6051C238.581 21.6051 238.978 21.4825 239.303 21.2372C239.628 20.9886 239.875 20.6456 240.044 20.2081C240.213 19.7673 240.297 19.2585 240.297 18.6818C240.297 18.1117 240.215 17.6129 240.049 17.1854C239.883 16.7545 239.638 16.4197 239.313 16.1811C238.988 15.9392 238.587 15.8182 238.11 15.8182C237.613 15.8182 237.198 15.9458 236.867 16.201C236.539 16.4529 236.292 16.7959 236.126 17.2301C235.964 17.661 235.883 18.1449 235.883 18.6818C235.883 19.2254 235.966 19.7192 236.131 20.1634C236.3 20.6042 236.549 20.9555 236.877 21.2173C237.208 21.4759 237.619 21.6051 238.11 21.6051ZM248.831 19.3778V14.8636H250.004V22.5H248.831V21.2074H248.752C248.573 21.5952 248.294 21.925 247.916 22.1967C247.538 22.4652 247.061 22.5994 246.484 22.5994C246.007 22.5994 245.583 22.495 245.212 22.2862C244.841 22.0741 244.549 21.7559 244.337 21.3317C244.125 20.9041 244.019 20.3655 244.019 19.7159V14.8636H245.192V19.6364C245.192 20.1932 245.348 20.6373 245.659 20.9688C245.974 21.3002 246.375 21.4659 246.862 21.4659C247.154 21.4659 247.451 21.3913 247.752 21.2422C248.057 21.093 248.312 20.8643 248.518 20.5561C248.727 20.2479 248.831 19.8551 248.831 19.3778ZM252.573 22.5V14.8636H253.747V22.5H252.573ZM253.17 13.5909C252.941 13.5909 252.744 13.513 252.578 13.3572C252.416 13.2015 252.335 13.0142 252.335 12.7955C252.335 12.5767 252.416 12.3894 252.578 12.2337C252.744 12.0779 252.941 12 253.17 12C253.399 12 253.594 12.0779 253.757 12.2337C253.922 12.3894 254.005 12.5767 254.005 12.7955C254.005 13.0142 253.922 13.2015 253.757 13.3572C253.594 13.513 253.399 13.5909 253.17 13.5909ZM256.316 22.5V14.8636H257.449V16.017H257.529C257.668 15.6392 257.92 15.3326 258.284 15.0973C258.649 14.862 259.06 14.7443 259.517 14.7443C259.603 14.7443 259.711 14.746 259.84 14.7493C259.97 14.7526 260.067 14.7576 260.134 14.7642V15.9574C260.094 15.9474 260.003 15.9325 259.86 15.9126C259.721 15.8894 259.574 15.8778 259.418 15.8778C259.047 15.8778 258.715 15.9557 258.424 16.1115C258.135 16.264 257.906 16.4761 257.737 16.7479C257.572 17.0163 257.489 17.3229 257.489 17.6676V22.5H256.316ZM264.914 22.6591C264.178 22.6591 263.543 22.4967 263.01 22.1719C262.479 21.8438 262.07 21.3864 261.782 20.7997C261.497 20.2098 261.354 19.5237 261.354 18.7415C261.354 17.9593 261.497 17.2699 261.782 16.6733C262.07 16.0734 262.471 15.6061 262.985 15.2713C263.502 14.9332 264.105 14.7642 264.795 14.7642C265.192 14.7642 265.585 14.8305 265.973 14.9631C266.361 15.0956 266.714 15.3111 267.032 15.6094C267.35 15.9044 267.603 16.2955 267.792 16.7827C267.981 17.2699 268.076 17.8698 268.076 18.5824V19.0795H262.189V18.0653H266.883C266.883 17.6345 266.796 17.25 266.624 16.9119C266.455 16.5739 266.213 16.3071 265.898 16.1115C265.587 15.916 265.219 15.8182 264.795 15.8182C264.327 15.8182 263.923 15.9342 263.581 16.1662C263.243 16.3949 262.983 16.6932 262.801 17.0611C262.619 17.429 262.527 17.8234 262.527 18.2443V18.9205C262.527 19.4972 262.627 19.986 262.826 20.3871C263.028 20.7848 263.308 21.0881 263.666 21.2969C264.024 21.5024 264.44 21.6051 264.914 21.6051C265.222 21.6051 265.5 21.562 265.749 21.4759C266.001 21.3864 266.218 21.2538 266.4 21.0781C266.583 20.8991 266.724 20.6771 266.823 20.4119L267.956 20.7301C267.837 21.1146 267.637 21.4527 267.355 21.7443C267.073 22.0327 266.725 22.258 266.311 22.4205C265.897 22.5795 265.431 22.6591 264.914 22.6591ZM273.164 22.6591C272.528 22.6591 271.966 22.4983 271.479 22.1768C270.992 21.852 270.61 21.3946 270.335 20.8047C270.06 20.2114 269.923 19.5104 269.923 18.7017C269.923 17.8996 270.06 17.2036 270.335 16.6136C270.61 16.0237 270.993 15.5679 271.484 15.2464C271.974 14.925 272.541 14.7642 273.184 14.7642C273.681 14.7642 274.074 14.8471 274.362 15.0128C274.654 15.1752 274.876 15.3608 275.028 15.5696C275.184 15.7751 275.305 15.9441 275.391 16.0767H275.491V12.3182H276.664V22.5H275.531V21.3267H275.391C275.305 21.4659 275.183 21.6416 275.023 21.8537C274.864 22.0625 274.637 22.2498 274.342 22.4155C274.047 22.5779 273.655 22.6591 273.164 22.6591ZM273.323 21.6051C273.794 21.6051 274.192 21.4825 274.516 21.2372C274.841 20.9886 275.088 20.6456 275.257 20.2081C275.426 19.7673 275.511 19.2585 275.511 18.6818C275.511 18.1117 275.428 17.6129 275.262 17.1854C275.096 16.7545 274.851 16.4197 274.526 16.1811C274.202 15.9392 273.8 15.8182 273.323 15.8182C272.826 15.8182 272.412 15.9458 272.08 16.201C271.752 16.4529 271.505 16.7959 271.34 17.2301C271.177 17.661 271.096 18.1449 271.096 18.6818C271.096 19.2254 271.179 19.7192 271.345 20.1634C271.514 20.6042 271.762 20.9555 272.09 21.2173C272.422 21.4759 272.833 21.6051 273.323 21.6051Z" fill="#7E7F83"/>
</g>
<defs>
<filter id="filter0_d_177_124" x="10.0737" y="12.679" width="96.5996" height="15.1847" filterUnits="userSpaceOnUse" color-interpolation-filters="sRGB">
<feFlood flood-opacity="0" result="BackgroundImageFix"/>
<feColorMatrix in="SourceAlpha" type="matrix" values="0 0 0 0 0 0 0 0 0 0 0 0 0 0 0 0 0 0 127 0" result="hardAlpha"/>
<feOffset dy="1"/>
<feGaussianBlur stdDeviation="0.5"/>
<feComposite in2="hardAlpha" operator="out"/>
<feColorMatrix type="matrix" values="0 0 0 0 0 0 0 0 0 0 0 0 0 0 0 0 0 0 0.15 0"/>
<feBlend mode="normal" in2="BackgroundImageFix" result="effect1_dropShadow_177_124"/>
<feBlend mode="normal" in="SourceGraphic" in2="effect1_dropShadow_177_124" result="shape"/>
</filter>
<filter id="filter1_i_177_124" x="322" y="0" width="61" height="36" filterUnits="userSpaceOnUse" color-interpolation-filters="sRGB">
<feFlood flood-opacity="0" result="BackgroundImageFix"/>
<feBlend mode="normal" in="SourceGraphic" in2="BackgroundImageFix" result="shape"/>
<feColorMatrix in="SourceAlpha" type="matrix" values="0 0 0 0 0 0 0 0 0 0 0 0 0 0 0 0 0 0 127 0" result="hardAlpha"/>
<feOffset dy="1"/>
<feGaussianBlur stdDeviation="0.5"/>
<feComposite in2="hardAlpha" operator="arithmetic" k2="-1" k3="1"/>
<feColorMatrix type="matrix" values="0 0 0 0 1 0 0 0 0 1 0 0 0 0 1 0 0 0 0.2 0"/>
<feBlend mode="normal" in2="shape" result="effect1_innerShadow_177_124"/>
</filter>
<filter id="filter2_b_177_124" x="-4" y="-4" width="391" height="43" filterUnits="userSpaceOnUse" color-interpolation-filters="sRGB">
<feFlood flood-opacity="0" result="BackgroundImageFix"/>
<feGaussianBlur in="BackgroundImageFix" stdDeviation="2"/>
<feComposite in2="SourceAlpha" operator="in" result="effect1_backgroundBlur_177_124"/>
<feBlend mode="normal" in="SourceGraphic" in2="effect1_backgroundBlur_177_124" result="shape"/>
</filter>
<linearGradient id="paint0_linear_177_124" x1="352.5" y1="0" x2="352.5" y2="35" gradientUnits="userSpaceOnUse">
<stop stop-color="#F26948"/>
<stop offset="1" stop-color="#EB4E27"/>
</linearGradient>
</defs>
</svg>
