<svg width="20" height="20" viewBox="0 0 20 20" fill="none" xmlns="http://www.w3.org/2000/svg">
<path d="M15.1113 9.16669C15.5962 13.6463 17.5 15 17.5 15H2.5C2.5 15 5 13.2223 5 7.00002C5 5.58553 5.52678 4.22898 6.46447 3.22879C7.40215 2.22859 8.67392 1.66669 10 1.66669C10.2811 1.66669 10.5597 1.69194 10.8333 1.74126" stroke="#FBFCFE" stroke-width="0.833333" stroke-linecap="round" stroke-linejoin="round"/>
<path d="M15.8335 6.66669C17.2142 6.66669 18.3335 5.5474 18.3335 4.16669C18.3335 2.78598 17.2142 1.66669 15.8335 1.66669C14.4527 1.66669 13.3335 2.78598 13.3335 4.16669C13.3335 5.5474 14.4527 6.66669 15.8335 6.66669Z" fill="#EF5D39"/>
<path d="M11.4414 17.5C11.2949 17.7526 11.0847 17.9622 10.8316 18.1079C10.5786 18.2537 10.2918 18.3304 9.99977 18.3304C9.70777 18.3304 9.42094 18.2537 9.16794 18.1079C8.91494 17.9622 8.70461 17.7526 8.55811 17.5" stroke="#7E7F83" stroke-width="0.833333" stroke-linecap="round" stroke-linejoin="round"/>
</svg>
