<svg width="20" height="20" viewBox="0 0 20 20" fill="none" xmlns="http://www.w3.org/2000/svg">
<path d="M15.1113 9.16669C15.5962 13.6463 17.5 15 17.5 15H2.5C2.5 15 5 13.2223 5 7.00002C5 5.58553 5.52678 4.22898 6.46447 3.22879C7.40215 2.22859 8.67392 1.66669 10 1.66669C10.2811 1.66669 10.5597 1.69194 10.8333 1.74126" stroke="#7E7F83" stroke-width="0.833333" stroke-linecap="round" stroke-linejoin="round"/>
<path d="M15.833 6.66669C17.2138 6.66669 18.333 5.5474 18.333 4.16669C18.333 2.78598 17.2138 1.66669 15.833 1.66669C14.4523 1.66669 13.333 2.78598 13.333 4.16669C13.333 5.5474 14.4523 6.66669 15.833 6.66669Z" stroke="#7E7F83" stroke-width="0.833333" stroke-linecap="round" stroke-linejoin="round"/>
<path d="M11.4419 17.5C11.2954 17.7526 11.0852 17.9622 10.8321 18.1079C10.5791 18.2537 10.2923 18.3304 10.0003 18.3304C9.70826 18.3304 9.42143 18.2537 9.16843 18.1079C8.91543 17.9622 8.70509 17.7526 8.55859 17.5" stroke="#7E7F83" stroke-width="0.833333" stroke-linecap="round" stroke-linejoin="round"/>
</svg>
