<svg width="18" height="18" viewBox="0 0 18 18" fill="none" xmlns="http://www.w3.org/2000/svg">
<path d="M15.375 5.70858V12.2918C15.375 12.4461 15.2914 12.5883 15.1564 12.6633L9.20642 15.9688C9.07807 16.0402 8.92196 16.0402 8.79361 15.9688L2.84361 12.6633C2.7087 12.5883 2.62501 12.4461 2.62501 12.2918L2.625 5.70858C2.625 5.55423 2.70868 5.41202 2.84361 5.33707L8.79361 2.03151C8.92196 1.9602 9.07807 1.9602 9.20642 2.03151L15.1564 5.33707C15.2913 5.41202 15.375 5.55423 15.375 5.70858Z" stroke="#7E7F83" stroke-width="0.833333" stroke-linecap="round" stroke-linejoin="round"/>
<path d="M2.99951 5.66647L8.79379 8.88551C8.92214 8.95684 9.07826 8.95684 9.20661 8.88551L15.021 5.65527" stroke="#7E7F83" stroke-width="0.833333" stroke-linecap="round" stroke-linejoin="round"/>
<path d="M9 15.375V9" stroke="#7E7F83" stroke-width="0.833333" stroke-linecap="round" stroke-linejoin="round"/>
</svg>
