<svg width="19" height="19" viewBox="0 0 19 19" fill="none" xmlns="http://www.w3.org/2000/svg">
<path d="M2.375 16.15V2.85C2.375 2.58767 2.58767 2.375 2.85 2.375H16.15C16.4124 2.375 16.625 2.58767 16.625 2.85V16.15C16.625 16.4124 16.4124 16.625 16.15 16.625H2.85C2.58767 16.625 2.375 16.4124 2.375 16.15Z" stroke="#ffff" stroke-width="0.833333"/>
<path d="M12.2708 12.6667C12.4894 12.6667 12.6667 12.4894 12.6667 12.2708C12.6667 12.0523 12.4894 11.875 12.2708 11.875C12.0523 11.875 11.875 12.0523 11.875 12.2708C11.875 12.4894 12.0523 12.6667 12.2708 12.6667Z" fill="#ffff" stroke="#ffff" stroke-width="0.833333" stroke-linecap="round" stroke-linejoin="round"/>
<path d="M6.72933 7.12498C6.94794 7.12498 7.12516 6.94776 7.12516 6.72915C7.12516 6.51054 6.94794 6.33331 6.72933 6.33331C6.51072 6.33331 6.3335 6.51054 6.3335 6.72915C6.3335 6.94776 6.51072 7.12498 6.72933 7.12498Z" fill="#ffff" stroke="#ffff" stroke-width="0.833333" stroke-linecap="round" stroke-linejoin="round"/>
<path d="M12.6668 6.33331L6.3335 12.6666" stroke="#ffff" stroke-width="0.833333" stroke-linecap="round" stroke-linejoin="round"/>
</svg>
